<?xml version="1.0" encoding="UTF-8" standalone="no"?>
<!-- Created with Inkscape (http://www.inkscape.org/) -->

<svg width="135.46666mm" height="135.46666mm" viewBox="0 0 135.46666 135.46666" version="1.1" id="svg1" xmlns="http://www.w3.org/2000/svg" xmlns:svg="http://www.w3.org/2000/svg">
  <defs id="defs1">
    <rect x="135.45168" y="121.04192" width="324.21942" height="289.63602" id="rect1" />
  </defs>
  <rect style="fill:#000000;fill-opacity:1;fill-rule:evenodd;stroke:none;stroke-width:1.02417" id="rect2" width="135.46666" height="135.46666" x="3.2445534e-08" y="3.5120354e-07" />
  <path d="M 32.655032,38.875683 V 20.471724 h 9.103359 v 18.403959 z m 9.103365,0 V 20.471724 h 9.103359 v 18.403959 z m 9.103365,0 V 20.471724 h 9.103359 v 18.403959 z m 9.103364,0 V 20.471724 h 9.10336 v 18.403959 z m 9.103365,0 V 20.471724 h 9.10336 v 18.403959 z m 9.10337,0 V 20.471724 h 9.10336 v 18.403959 z m 14.459175,0.09103 V 28.87716 h -5.446843 v -1.077231 h 6.524074 v 11.166787 z m -2.670319,0 v -7.419238 h -2.776524 v -1.077231 h 3.853755 v 8.496469 z M 32.655032,55.565175 V 37.161217 h 9.103359 v 18.403958 z m 9.103365,0 V 37.161217 h 9.103359 v 18.403958 z m 11.773683,0.09103 V 44.489421 h 6.524075 v 1.077231 h -5.446844 v 10.089556 z m 2.670319,0 V 47.15974 h 3.853756 v 1.077231 H 57.27963 v 7.419237 z m 3.671694,-10.089556 v -1.077231 h 9.285426 v 1.077231 z m 0,2.670319 V 47.15974 h 9.285426 v 1.077231 z m 9.103365,-2.670319 v -1.077231 h 9.285426 v 1.077231 z m 0,2.670319 V 47.15974 h 9.285426 v 1.077231 z m 9.194403,7.328204 V 37.161217 h 9.10336 v 18.403958 z m 9.103365,0 V 37.161217 h 9.10336 v 18.403958 z m 14.459174,0.09103 v -10.08955 h -5.446843 v -1.077231 h 6.524073 v 11.166787 z m -2.670318,0 V 48.236971 H 96.287557 V 47.15974 h 3.853753 v 8.496468 z m -66.40905,16.59847 V 53.850714 h 9.103359 v 18.403958 z m 9.103365,0 V 53.850714 h 9.103359 v 18.403958 z m 14.459174,0.09103 V 53.759681 h 1.077231 v 18.586025 z m -2.685491,0 V 53.759681 h 1.077231 v 18.586025 z m 24.639781,-0.09103 V 53.850714 h 9.10336 v 18.403958 z m 9.103365,0 V 53.850714 h 9.10336 v 18.403958 z m 14.459174,0.09103 V 53.759681 h 1.07723 v 18.586025 z m -2.68549,0 V 53.759681 h 1.07723 V 72.345706 Z M 32.655032,88.944165 V 70.540206 h 9.103359 v 18.403959 z m 9.103365,0 V 70.540206 h 9.103359 v 18.403959 z m 14.459174,0.09103 V 70.449173 h 1.077231 v 18.586025 z m -2.685491,0 V 70.449173 h 1.077231 v 18.586025 z m 24.639781,-0.09103 V 70.540206 h 9.10336 v 18.403959 z m 9.103365,0 V 70.540206 h 9.10336 v 18.403959 z m 14.459174,0.09103 V 70.449173 h 1.07723 v 18.586025 z m -2.68549,0 V 70.449173 h 1.07723 V 89.035198 Z M 32.655032,105.63366 V 87.229699 h 9.103359 v 18.403961 z m 9.103365,0 V 87.229699 h 9.103359 v 18.403961 z m 9.103365,0 V 87.229699 h 9.103359 v 18.403961 z m 9.103364,0 V 87.229699 h 9.10336 v 18.403961 z m 9.103365,0 V 87.229699 h 9.10336 v 18.403961 z m 9.10337,0 V 87.229699 h 9.10336 v 18.403961 z m 11.773684,0.091 V 94.557903 h 6.524074 v 1.077231 h -5.446843 v 10.089556 z m 2.670319,0 v -8.496468 h 3.853755 v 1.077231 h -2.776524 v 7.419237 z m 3.671693,-7.419237 V 97.228222 H 101.7344 V 87.138665 h 1.07723 v 11.166788 z m 0,-2.670319 v -1.077231 h 2.776525 v -7.419238 h 1.077228 v 8.496469 z M 35.325351,114.99494 v -11.16679 h 1.077231 v 10.08956 h 5.446843 v 1.07723 z m 2.670319,-2.67032 v -8.49647 h 1.07723 v 7.41924 h 2.776525 v 1.07723 z m 3.671693,0 v -1.07723 h 9.285427 v 1.07723 z m 0,2.67032 v -1.07723 h 9.285427 v 1.07723 z m 9.103365,-2.67032 v -1.07723 h 9.285427 v 1.07723 z m 0,2.67032 v -1.07723 h 9.285427 v 1.07723 z m 9.103365,-2.67032 v -1.07723 h 9.285426 v 1.07723 z m 0,2.67032 v -1.07723 h 9.285426 v 1.07723 z m 9.103365,-2.67032 v -1.07723 h 9.285426 v 1.07723 z m 0,2.67032 v -1.07723 h 9.285426 v 1.07723 z m 9.10337,-2.67032 v -1.07723 h 9.285426 v 1.07723 z m 0,2.67032 v -1.07723 h 9.285426 v 1.07723 z m 9.103365,0 v -1.07723 h 5.446843 v -10.08956 h 1.077231 v 11.16679 z m 0,-2.67032 v -1.07723 h 2.776524 v -7.41924 h 1.077231 v 8.49647 z" id="text1" style="font-size:28px;line-height:1.1;font-family:Monospace;-inkscape-font-specification:Monospace;letter-spacing:0px;word-spacing:0px;white-space:pre;fill:#d58315;stroke-width:0.541867" aria-label="██████╗ &#10;██╔══██╗&#10;██║  ██║&#10;██║  ██║&#10;██████╔╝&#10;╚═════╝" />
</svg>
